solid new_stl_file.stl
facet normal 38.196602 117.557053 -0.000000
  outer loop
    vertex 0.000000 10.000000 -10.000000
    vertex 0.000000 10.000000 10.000000
    vertex 5.877852 8.090170 10.000000
  endloop
endfacet
facet normal 38.196602 117.557053 0.000000
  outer loop
    vertex 5.877852 8.090170 10.000000
    vertex 5.877852 8.090170 -10.000000
    vertex 0.000000 10.000000 -10.000000
  endloop
endfacet
facet normal 0.000000 0.000000 -22.451387
  outer loop
    vertex 0.000000 10.000000 -10.000000
    vertex -9.510565 3.090171 -10.000000
    vertex -5.877850 8.090172 -10.000000
  endloop
endfacet
facet normal 0.000000 0.000000 -22.451397
  outer loop
    vertex -5.877854 -8.090169 -10.000000
    vertex -9.510565 -3.090171 -10.000000
    vertex -9.510565 3.090171 -10.000000
  endloop
endfacet
facet normal -0.000000 0.000000 -22.451401
  outer loop
    vertex 5.877852 -8.090171 -10.000000
    vertex -0.000001 -10.000000 -10.000000
    vertex -5.877854 -8.090169 -10.000000
  endloop
endfacet
facet normal 0.000000 0.000000 -22.451395
  outer loop
    vertex 9.510566 3.090170 -10.000000
    vertex 9.510565 -3.090170 -10.000000
    vertex 5.877852 -8.090171 -10.000000
  endloop
endfacet
facet normal 0.000000 0.000000 -22.451399
  outer loop
    vertex 0.000000 10.000000 -10.000000
    vertex 5.877852 8.090170 -10.000000
    vertex 9.510566 3.090170 -10.000000
  endloop
endfacet
facet normal 0.000000 0.000000 -131.432755
  outer loop
    vertex 0.000000 10.000000 -10.000000
    vertex -5.877854 -8.090169 -10.000000
    vertex -9.510565 3.090171 -10.000000
  endloop
endfacet
facet normal 0.000000 0.000000 -131.432800
  outer loop
    vertex 9.510566 3.090170 -10.000000
    vertex 5.877852 -8.090171 -10.000000
    vertex -5.877854 -8.090169 -10.000000
  endloop
endfacet
facet normal 0.000000 -0.000000 -212.662704
  outer loop
    vertex 0.000000 10.000000 -10.000000
    vertex 9.510566 3.090170 -10.000000
    vertex -5.877854 -8.090169 -10.000000
  endloop
endfacet
facet normal -38.196564 117.556992 0.000000
  outer loop
    vertex 0.000000 10.000000 10.000000
    vertex 0.000000 10.000000 -10.000000
    vertex -5.877850 8.090172 -10.000000
  endloop
endfacet
facet normal -38.196564 117.556992 0.000000
  outer loop
    vertex -5.877850 8.090172 -10.000000
    vertex -5.877850 8.090172 10.000000
    vertex 0.000000 10.000000 10.000000
  endloop
endfacet
facet normal 0.000000 0.000000 22.451408
  outer loop
    vertex 5.877852 8.090170 10.000000
    vertex 9.510565 -3.090170 10.000000
    vertex 9.510566 3.090170 10.000000
  endloop
endfacet
facet normal 0.000000 0.000000 22.451408
  outer loop
    vertex -0.000001 -10.000000 10.000000
    vertex 5.877852 -8.090171 10.000000
    vertex 9.510565 -3.090170 10.000000
  endloop
endfacet
facet normal 0.000000 0.000000 22.451387
  outer loop
    vertex -9.510565 -3.090171 10.000000
    vertex -5.877854 -8.090169 10.000000
    vertex -0.000001 -10.000000 10.000000
  endloop
endfacet
facet normal 0.000000 0.000000 22.451424
  outer loop
    vertex -5.877850 8.090172 10.000000
    vertex -9.510565 3.090171 10.000000
    vertex -9.510565 -3.090171 10.000000
  endloop
endfacet
facet normal 0.000000 0.000000 22.451382
  outer loop
    vertex 5.877852 8.090170 10.000000
    vertex 0.000000 10.000000 10.000000
    vertex -5.877850 8.090172 10.000000
  endloop
endfacet
facet normal 0.000000 0.000000 131.432785
  outer loop
    vertex 5.877852 8.090170 10.000000
    vertex -0.000001 -10.000000 10.000000
    vertex 9.510565 -3.090170 10.000000
  endloop
endfacet
facet normal 0.000000 0.000000 131.432800
  outer loop
    vertex -5.877850 8.090172 10.000000
    vertex -9.510565 -3.090171 10.000000
    vertex -0.000001 -10.000000 10.000000
  endloop
endfacet
facet normal 0.000000 0.000000 212.662659
  outer loop
    vertex 5.877852 8.090170 10.000000
    vertex -5.877850 8.090172 10.000000
    vertex -0.000001 -10.000000 10.000000
  endloop
endfacet
facet normal 49.480530 35.949715 0.000000
  outer loop
    vertex 5.877852 8.090170 -10.000000
    vertex 9.510566 3.090170 -0.103894
    vertex 9.510566 3.090170 -10.000000
  endloop
endfacet
facet normal 0.166499 0.120970 0.000000
  outer loop
    vertex 9.510566 3.090170 10.000000
    vertex 9.510566 3.090170 8.044671
    vertex 9.448699 3.175321 8.004897
  endloop
endfacet
facet normal 1.041534 0.756729 0.000004
  outer loop
    vertex 5.877852 8.090170 -10.000000
    vertex 9.448699 3.175321 -0.064120
    vertex 9.510566 3.090170 -0.103894
  endloop
endfacet
facet normal 3.372291 2.450111 -0.000001
  outer loop
    vertex 9.510566 3.090170 10.000000
    vertex 9.448699 3.175321 8.004897
    vertex 8.163237 4.944609 6.153849
  endloop
endfacet
facet normal 26.677048 19.382008 -0.000002
  outer loop
    vertex 5.877852 8.090170 -10.000000
    vertex 8.163237 4.944609 1.786928
    vertex 9.448699 3.175321 -0.064120
  endloop
endfacet
facet normal 19.230757 13.971965 -0.000001
  outer loop
    vertex 5.877852 8.090170 10.000000
    vertex 9.510566 3.090170 10.000000
    vertex 8.163237 4.944609 6.153849
  endloop
endfacet
facet normal 14.191320 10.310602 0.000001
  outer loop
    vertex 5.877852 8.090170 -10.000000
    vertex 7.711842 5.565899 3.970388
    vertex 8.163237 4.944609 1.786928
  endloop
endfacet
facet normal 9.257786 6.726177 -0.000001
  outer loop
    vertex 5.877852 8.090170 10.000000
    vertex 8.163237 4.944609 6.153849
    vertex 7.711842 5.565899 3.970388
  endloop
endfacet
facet normal 50.485413 36.679794 -0.000000
  outer loop
    vertex 5.877852 8.090170 -10.000000
    vertex 5.877852 8.090170 10.000000
    vertex 7.711842 5.565899 3.970388
  endloop
endfacet
facet normal 61.161297 -0.000009 0.000000
  outer loop
    vertex 9.510566 3.090170 -10.000000
    vertex 9.510565 -3.090170 -0.103894
    vertex 9.510565 -3.090170 -10.000000
  endloop
endfacet
facet normal 9.441326 0.000000 -0.000000
  outer loop
    vertex 9.510566 3.090170 -10.000000
    vertex 9.510566 3.090170 -0.103894
    vertex 9.510566 2.136125 -0.741366
  endloop
endfacet
facet normal 5.501534 0.000001 0.000001
  outer loop
    vertex 9.510566 3.090170 -10.000000
    vertex 9.510565 -2.136125 -0.741367
    vertex 9.510565 -3.090170 -0.103894
  endloop
endfacet
facet normal 19.253414 0.000000 0.000000
  outer loop
    vertex 9.510566 3.090170 -10.000000
    vertex 9.510566 2.136125 -0.741366
    vertex 9.510566 0.114278 -1.300951
  endloop
endfacet
facet normal 15.794992 0.000001 0.000002
  outer loop
    vertex 9.510566 3.090170 -10.000000
    vertex 9.510565 -0.114277 -1.300951
    vertex 9.510565 -2.136125 -0.741367
  endloop
endfacet
facet normal 1.022125 0.000000 0.000000
  outer loop
    vertex 9.510566 3.090170 -10.000000
    vertex 9.510566 0.114278 -1.300951
    vertex 9.510566 0.000000 -1.310367
  endloop
endfacet
facet normal 0.963934 -0.000008 -0.000003
  outer loop
    vertex 9.510566 3.090170 -10.000000
    vertex 9.510566 0.000000 -1.310367
    vertex 9.510565 -0.114277 -1.300951
  endloop
endfacet
facet normal 100.000008 -72.654259 0.000000
  outer loop
    vertex 9.510565 -3.090170 -10.000000
    vertex 5.877852 -8.090171 10.000000
    vertex 5.877852 -8.090171 -10.000000
  endloop
endfacet
facet normal 9.776646 -7.103148 0.000000
  outer loop
    vertex 9.510565 -3.090170 8.044671
    vertex 9.510565 -3.090170 10.000000
    vertex 5.877852 -8.090171 10.000000
  endloop
endfacet
facet normal 0.842661 -0.612231 0.000000
  outer loop
    vertex 9.510565 -3.090170 -10.000000
    vertex 9.510565 -3.090170 -0.103894
    vertex 9.448699 -3.175321 -0.064120
  endloop
endfacet
facet normal 0.365367 -0.265455 -0.000001
  outer loop
    vertex 9.448699 -3.175321 8.004897
    vertex 9.510565 -3.090170 8.044671
    vertex 5.877852 -8.090171 10.000000
  endloop
endfacet
facet normal 17.421795 -12.657673 0.000000
  outer loop
    vertex 9.510565 -3.090170 -10.000000
    vertex 9.448699 -3.175321 -0.064120
    vertex 8.163238 -4.944607 1.786928
  endloop
endfacet
facet normal 12.627533 -9.174438 0.000000
  outer loop
    vertex 8.163238 -4.944607 6.153849
    vertex 9.448699 -3.175321 8.004897
    vertex 5.877852 -8.090171 10.000000
  endloop
endfacet
facet normal 3.274023 -2.378717 -0.000000
  outer loop
    vertex 9.510565 -3.090170 -10.000000
    vertex 8.163238 -4.944607 1.786928
    vertex 7.711843 -5.565898 3.970388
  endloop
endfacet
facet normal 9.257793 -6.726181 -0.000000
  outer loop
    vertex 7.711843 -5.565898 3.970388
    vertex 8.163238 -4.944607 6.153849
    vertex 5.877852 -8.090171 10.000000
  endloop
endfacet
facet normal 20.337391 -14.775974 0.000000
  outer loop
    vertex 9.510565 -3.090170 -10.000000
    vertex 7.711843 -5.565898 3.970388
    vertex 5.877852 -8.090171 10.000000
  endloop
endfacet
facet normal 38.196583 -117.557060 0.000000
  outer loop
    vertex 5.877852 -8.090171 -10.000000
    vertex 5.877852 -8.090171 10.000000
    vertex -0.000001 -10.000000 10.000000
  endloop
endfacet
facet normal 38.196583 -117.557060 0.000000
  outer loop
    vertex -0.000001 -10.000000 10.000000
    vertex -0.000001 -10.000000 -10.000000
    vertex 5.877852 -8.090171 -10.000000
  endloop
endfacet
facet normal -38.196621 -117.557060 0.000000
  outer loop
    vertex -0.000001 -10.000000 -10.000000
    vertex -0.000001 -10.000000 10.000000
    vertex -5.877854 -8.090169 10.000000
  endloop
endfacet
facet normal -38.196621 -117.557060 -0.000000
  outer loop
    vertex -5.877854 -8.090169 10.000000
    vertex -5.877854 -8.090169 -10.000000
    vertex -0.000001 -10.000000 -10.000000
  endloop
endfacet
facet normal -99.999962 -72.654221 0.000000
  outer loop
    vertex -5.877854 -8.090169 -10.000000
    vertex -5.877854 -8.090169 10.000000
    vertex -9.510565 -3.090171 10.000000
  endloop
endfacet
facet normal -99.999962 -72.654221 -0.000000
  outer loop
    vertex -9.510565 -3.090171 10.000000
    vertex -9.510565 -3.090171 -10.000000
    vertex -5.877854 -8.090169 -10.000000
  endloop
endfacet
facet normal -123.606842 0.000000 0.000000
  outer loop
    vertex -9.510565 -3.090171 -10.000000
    vertex -9.510565 -3.090171 10.000000
    vertex -9.510565 3.090171 10.000000
  endloop
endfacet
facet normal -123.606842 0.000000 -0.000000
  outer loop
    vertex -9.510565 3.090171 10.000000
    vertex -9.510565 3.090171 -10.000000
    vertex -9.510565 -3.090171 -10.000000
  endloop
endfacet
facet normal -100.000008 72.654305 0.000000
  outer loop
    vertex -9.510565 3.090171 -10.000000
    vertex -9.510565 3.090171 10.000000
    vertex -5.877850 8.090172 10.000000
  endloop
endfacet
facet normal -100.000008 72.654305 0.000000
  outer loop
    vertex -5.877850 8.090172 10.000000
    vertex -5.877850 8.090172 -10.000000
    vertex -9.510565 3.090171 -10.000000
  endloop
endfacet
facet normal 1.865473 0.000000 0.000000
  outer loop
    vertex 9.510565 -3.090170 10.000000
    vertex 9.510565 -3.090170 8.044671
    vertex 9.510565 -2.136125 8.682143
  endloop
endfacet
facet normal 1.865471 0.000000 -0.000000
  outer loop
    vertex 9.510566 3.090170 8.044671
    vertex 9.510566 3.090170 10.000000
    vertex 9.510566 2.136125 8.682143
  endloop
endfacet
facet normal 3.198375 0.000000 0.000000
  outer loop
    vertex 9.510565 -3.090170 10.000000
    vertex 9.510565 -2.136125 8.682143
    vertex 9.510565 -0.114277 9.241728
  endloop
endfacet
facet normal 3.198374 0.000000 0.000000
  outer loop
    vertex 9.510566 3.090170 10.000000
    vertex 9.510566 0.114278 9.241728
    vertex 9.510566 2.136125 8.682143
  endloop
endfacet
facet normal 0.114673 -0.000001 -0.000003
  outer loop
    vertex 9.510565 -3.090170 10.000000
    vertex 9.510565 -0.114277 9.241728
    vertex 9.510566 0.000000 9.251143
  endloop
endfacet
facet normal 0.114673 0.000000 0.000000
  outer loop
    vertex 9.510566 3.090170 10.000000
    vertex 9.510566 0.000000 9.251143
    vertex 9.510566 0.114278 9.241728
  endloop
endfacet
facet normal 4.628188 -0.000001 0.000003
  outer loop
    vertex 9.510566 3.090170 10.000000
    vertex 9.510565 -3.090170 10.000000
    vertex 9.510566 0.000000 9.251143
  endloop
endfacet
facet normal 0.218408 0.527283 -0.789134
  outer loop
    vertex 9.448699 3.175321 -0.064120
    vertex 10.227268 2.852828 -0.064120
    vertex 9.510566 2.136125 -0.741366
  endloop
endfacet
facet normal -0.016336 -0.039438 0.059024
  outer loop
    vertex 9.510566 2.136125 -0.741366
    vertex 9.510566 3.090170 -0.103894
    vertex 9.448699 3.175321 -0.064120
  endloop
endfacet
facet normal 2.253114 5.439496 -3.634555
  outer loop
    vertex 8.163237 4.944609 1.786928
    vertex 11.101840 3.727399 1.786928
    vertex 10.227268 2.852828 -0.064120
  endloop
endfacet
facet normal 0.596951 1.441169 -0.962960
  outer loop
    vertex 10.227268 2.852828 -0.064120
    vertex 9.448699 3.175321 -0.064120
    vertex 8.163237 4.944609 1.786928
  endloop
endfacet
facet normal 0.063948 0.026488 -0.095703
  outer loop
    vertex 9.510566 2.136125 -0.741366
    vertex 9.557900 0.000000 -1.300951
    vertex 9.510566 0.114278 -1.300951
  endloop
endfacet
facet normal 3.528465 1.461537 -5.280716
  outer loop
    vertex 10.227268 2.852828 -0.064120
    vertex 11.408947 0.000000 -0.064120
    vertex 9.557900 0.000000 -1.300951
  endloop
endfacet
facet normal 1.045627 0.433113 -1.564891
  outer loop
    vertex 9.510566 2.136125 -0.741366
    vertex 10.227268 2.852828 -0.064120
    vertex 9.557900 0.000000 -1.300951
  endloop
endfacet
facet normal 3.343734 8.072488 -1.605719
  outer loop
    vertex 7.711842 5.565899 3.970388
    vertex 11.408949 4.034508 3.970388
    vertex 11.101840 3.727399 1.786928
  endloop
endfacet
facet normal 2.657730 6.416325 -1.276285
  outer loop
    vertex 11.101840 3.727399 1.786928
    vertex 8.163237 4.944609 1.786928
    vertex 7.711842 5.565899 3.970388
  endloop
endfacet
facet normal 6.899593 2.857904 -4.610162
  outer loop
    vertex 10.227268 2.852828 -0.064120
    vertex 11.101840 3.727399 1.786928
    vertex 12.645779 0.000000 1.786928
  endloop
endfacet
facet normal 5.280720 2.187344 -3.528468
  outer loop
    vertex 12.645779 0.000000 1.786928
    vertex 11.408947 0.000000 -0.064120
    vertex 10.227268 2.852828 -0.064120
  endloop
endfacet
facet normal 0.968234 -0.401056 -1.449065
  outer loop
    vertex 9.510565 -0.114277 -1.300951
    vertex 10.227268 -2.852828 -0.064120
    vertex 9.510565 -2.136125 -0.741367
  endloop
endfacet
facet normal 3.528465 -1.461537 -5.280716
  outer loop
    vertex 9.557900 0.000000 -1.300951
    vertex 11.408947 0.000000 -0.064120
    vertex 10.227268 -2.852828 -0.064120
  endloop
endfacet
facet normal 0.141342 -0.058546 -0.211534
  outer loop
    vertex 9.510565 -0.114277 -1.300951
    vertex 9.557900 0.000000 -1.300951
    vertex 10.227268 -2.852828 -0.064120
  endloop
endfacet
facet normal 0.001076 0.000446 -0.005409
  outer loop
    vertex 9.510566 0.114278 -1.300951
    vertex 9.557900 0.000000 -1.300951
    vertex 9.510566 0.000000 -1.310367
  endloop
endfacet
facet normal 2.657730 6.416324 1.276287
  outer loop
    vertex 8.163237 4.944609 6.153849
    vertex 11.101840 3.727399 6.153849
    vertex 11.408949 4.034508 3.970388
  endloop
endfacet
facet normal 3.343733 8.072487 1.605716
  outer loop
    vertex 11.408949 4.034508 3.970388
    vertex 7.711842 5.565899 3.970388
    vertex 8.163237 4.944609 6.153849
  endloop
endfacet
facet normal 8.809189 3.648885 -1.752257
  outer loop
    vertex 11.101840 3.727399 1.786928
    vertex 11.408949 4.034508 3.970388
    vertex 13.080096 0.000000 3.970388
  endloop
endfacet
facet normal 8.138629 3.371129 -1.618875
  outer loop
    vertex 13.080096 0.000000 3.970388
    vertex 12.645779 0.000000 1.786928
    vertex 11.101840 3.727399 1.786928
  endloop
endfacet
facet normal 6.899594 -2.857904 -4.610165
  outer loop
    vertex 11.408947 0.000000 -0.064120
    vertex 12.645779 0.000000 1.786928
    vertex 11.101840 -3.727399 1.786928
  endloop
endfacet
facet normal 5.280720 -2.187344 -3.528465
  outer loop
    vertex 11.101840 -3.727399 1.786928
    vertex 10.227268 -2.852828 -0.064120
    vertex 11.408947 0.000000 -0.064120
  endloop
endfacet
facet normal 0.001076 -0.000446 -0.005409
  outer loop
    vertex 9.510566 0.000000 -1.310367
    vertex 9.557900 0.000000 -1.300951
    vertex 9.510565 -0.114277 -1.300951
  endloop
endfacet
facet normal 0.218408 -0.527283 -0.789135
  outer loop
    vertex 9.510565 -2.136125 -0.741367
    vertex 10.227268 -2.852828 -0.064120
    vertex 9.448699 -3.175321 -0.064120
  endloop
endfacet
facet normal -0.016336 0.039438 0.059023
  outer loop
    vertex 9.448699 -3.175321 -0.064120
    vertex 9.510565 -3.090170 -0.103894
    vertex 9.510565 -2.136125 -0.741367
  endloop
endfacet
facet normal 0.596951 1.441169 0.962958
  outer loop
    vertex 9.448699 3.175321 8.004897
    vertex 10.227268 2.852828 8.004897
    vertex 11.101840 3.727399 6.153849
  endloop
endfacet
facet normal 2.253114 5.439497 3.634557
  outer loop
    vertex 11.101840 3.727399 6.153849
    vertex 8.163237 4.944609 6.153849
    vertex 9.448699 3.175321 8.004897
  endloop
endfacet
facet normal 8.138627 3.371129 1.618874
  outer loop
    vertex 11.408949 4.034508 3.970388
    vertex 11.101840 3.727399 6.153849
    vertex 12.645779 0.000000 6.153849
  endloop
endfacet
facet normal 8.809187 3.648884 1.752257
  outer loop
    vertex 12.645779 0.000000 6.153849
    vertex 13.080096 0.000000 3.970388
    vertex 11.408949 4.034508 3.970388
  endloop
endfacet
facet normal 8.809189 -3.648889 -1.752258
  outer loop
    vertex 12.645779 0.000000 1.786928
    vertex 13.080096 0.000000 3.970388
    vertex 11.408947 -4.034507 3.970388
  endloop
endfacet
facet normal 8.138629 -3.371130 -1.618867
  outer loop
    vertex 11.408947 -4.034507 3.970388
    vertex 11.101840 -3.727399 1.786928
    vertex 12.645779 0.000000 1.786928
  endloop
endfacet
facet normal 0.596951 -1.441169 -0.962958
  outer loop
    vertex 9.448699 -3.175321 -0.064120
    vertex 10.227268 -2.852828 -0.064120
    vertex 11.101840 -3.727399 1.786928
  endloop
endfacet
facet normal 2.253111 -5.439494 -3.634554
  outer loop
    vertex 11.101840 -3.727399 1.786928
    vertex 8.163238 -4.944607 1.786928
    vertex 9.448699 -3.175321 -0.064120
  endloop
endfacet
facet normal 0.218408 0.527283 0.789134
  outer loop
    vertex 9.510566 2.136125 8.682143
    vertex 10.227268 2.852828 8.004897
    vertex 9.448699 3.175321 8.004897
  endloop
endfacet
facet normal -0.016336 -0.039438 -0.059024
  outer loop
    vertex 9.448699 3.175321 8.004897
    vertex 9.510566 3.090170 8.044671
    vertex 9.510566 2.136125 8.682143
  endloop
endfacet
facet normal 5.280722 2.187345 3.528465
  outer loop
    vertex 11.101840 3.727399 6.153849
    vertex 10.227268 2.852828 8.004897
    vertex 11.408947 0.000000 8.004897
  endloop
endfacet
facet normal 6.899596 2.857905 4.610165
  outer loop
    vertex 11.408947 0.000000 8.004897
    vertex 12.645779 0.000000 6.153849
    vertex 11.101840 3.727399 6.153849
  endloop
endfacet
facet normal 8.138628 -3.371129 1.618875
  outer loop
    vertex 13.080096 0.000000 3.970388
    vertex 12.645779 0.000000 6.153849
    vertex 11.101840 -3.727399 6.153849
  endloop
endfacet
facet normal 8.809188 -3.648888 1.752250
  outer loop
    vertex 11.101840 -3.727399 6.153849
    vertex 11.408947 -4.034507 3.970388
    vertex 13.080096 0.000000 3.970388
  endloop
endfacet
facet normal 2.657727 -6.416323 -1.276284
  outer loop
    vertex 8.163238 -4.944607 1.786928
    vertex 11.101840 -3.727399 1.786928
    vertex 11.408947 -4.034507 3.970388
  endloop
endfacet
facet normal 3.343732 -8.072481 -1.605717
  outer loop
    vertex 11.408947 -4.034507 3.970388
    vertex 7.711843 -5.565898 3.970388
    vertex 8.163238 -4.944607 1.786928
  endloop
endfacet
facet normal 0.968233 0.401056 1.449063
  outer loop
    vertex 9.510566 0.114278 9.241728
    vertex 10.227268 2.852828 8.004897
    vertex 9.510566 2.136125 8.682143
  endloop
endfacet
facet normal 3.528465 1.461537 5.280716
  outer loop
    vertex 9.557900 0.000000 9.241728
    vertex 11.408947 0.000000 8.004897
    vertex 10.227268 2.852828 8.004897
  endloop
endfacet
facet normal 0.141342 0.058545 0.211531
  outer loop
    vertex 9.510566 0.114278 9.241728
    vertex 9.557900 0.000000 9.241728
    vertex 10.227268 2.852828 8.004897
  endloop
endfacet
facet normal 5.280722 -2.187345 3.528467
  outer loop
    vertex 12.645779 0.000000 6.153849
    vertex 11.408947 0.000000 8.004897
    vertex 10.227268 -2.852828 8.004897
  endloop
endfacet
facet normal 6.899596 -2.857905 4.610162
  outer loop
    vertex 10.227268 -2.852828 8.004897
    vertex 11.101840 -3.727399 6.153849
    vertex 12.645779 0.000000 6.153849
  endloop
endfacet
facet normal 3.343732 -8.072480 1.605713
  outer loop
    vertex 7.711843 -5.565898 3.970388
    vertex 11.408947 -4.034507 3.970388
    vertex 11.101840 -3.727399 6.153849
  endloop
endfacet
facet normal 2.657727 -6.416322 1.276286
  outer loop
    vertex 11.101840 -3.727399 6.153849
    vertex 8.163238 -4.944607 6.153849
    vertex 7.711843 -5.565898 3.970388
  endloop
endfacet
facet normal 0.001076 0.000446 0.005409
  outer loop
    vertex 9.510566 0.000000 9.251143
    vertex 9.557900 0.000000 9.241728
    vertex 9.510566 0.114278 9.241728
  endloop
endfacet
facet normal 0.063948 -0.026488 0.095705
  outer loop
    vertex 9.510565 -2.136125 8.682143
    vertex 9.557900 0.000000 9.241728
    vertex 9.510565 -0.114277 9.241728
  endloop
endfacet
facet normal 3.528465 -1.461537 5.280716
  outer loop
    vertex 10.227268 -2.852828 8.004897
    vertex 11.408947 0.000000 8.004897
    vertex 9.557900 0.000000 9.241728
  endloop
endfacet
facet normal 1.045626 -0.433114 1.564893
  outer loop
    vertex 9.510565 -2.136125 8.682143
    vertex 10.227268 -2.852828 8.004897
    vertex 9.557900 0.000000 9.241728
  endloop
endfacet
facet normal 2.253112 -5.439496 3.634553
  outer loop
    vertex 8.163238 -4.944607 6.153849
    vertex 11.101840 -3.727399 6.153849
    vertex 10.227268 -2.852828 8.004897
  endloop
endfacet
facet normal 0.596951 -1.441169 0.962959
  outer loop
    vertex 10.227268 -2.852828 8.004897
    vertex 9.448699 -3.175321 8.004897
    vertex 8.163238 -4.944607 6.153849
  endloop
endfacet
facet normal 0.001076 -0.000446 0.005409
  outer loop
    vertex 9.510565 -0.114277 9.241728
    vertex 9.557900 0.000000 9.241728
    vertex 9.510566 0.000000 9.251143
  endloop
endfacet
facet normal 0.189246 -0.456878 0.683768
  outer loop
    vertex 10.227268 -2.852828 8.004897
    vertex 9.510565 -2.136125 8.682143
    vertex 9.510565 -3.090170 8.044671
  endloop
endfacet
facet normal 0.012827 -0.030967 0.046344
  outer loop
    vertex 9.510565 -3.090170 8.044671
    vertex 9.448699 -3.175321 8.004897
    vertex 10.227268 -2.852828 8.004897
  endloop
endfacet
endsolid new_stl_file.stl
